<svg xmlns="http://www.w3.org/2000/svg" xmlns:xlink="http://www.w3.org/1999/xlink" width="148.008" height="38.665" viewBox="0 0 148.008 38.665">
  <defs>
    <clipPath id="clip-path">
      <rect id="Rectangle_3" data-name="Rectangle 3" width="148.008" height="38.665" fill="none"/>
    </clipPath>
    <clipPath id="clip-path-2">
      <rect id="Rectangle_4" data-name="Rectangle 4" width="148.005" height="38.665" fill="none"/>
    </clipPath>
  </defs>
  <g id="logo" transform="translate(-99.516 -257.954)">
    <g id="Group_1" data-name="Group 1" transform="translate(99.516 257.954)" clip-path="url(#clip-path)">
      <path id="Path_1" data-name="Path 1" d="M307.424,283.069v5.33h4.989v3.922h-4.989v9.125c0,2.558.682,3.838,2.686,3.838a6.871,6.871,0,0,0,2.047-.213l.086,3.965a11.512,11.512,0,0,1-3.8.554,6.007,6.007,0,0,1-4.52-1.706c-1.152-1.194-1.663-3.113-1.663-5.842v-9.722h-2.943V288.4h2.943v-3.881Z" transform="translate(-253.32 -277.287)" fill="#1d1c1c"/>
      <path id="Path_2" data-name="Path 2" d="M378.957,315.267c-3.71-.042-7.249.725-7.249,3.88a2.753,2.753,0,0,0,2.985,2.985,4.306,4.306,0,0,0,4.136-2.857,3.544,3.544,0,0,0,.128-1.151v-2.857Zm5.117,5.16a28.01,28.01,0,0,0,.341,4.988h-4.732l-.384-2.3h-.128a7.587,7.587,0,0,1-6.14,2.772,6.164,6.164,0,0,1-6.524-6.183c0-5.2,4.647-7.888,12.323-7.846v-.341c0-1.365-.554-3.624-4.222-3.624a11,11,0,0,0-5.585,1.535L368,306.013a14.949,14.949,0,0,1,7.5-1.833c6.652,0,8.571,4.222,8.571,8.784v7.462Z" transform="translate(-305.036 -293.537)" fill="#1d1c1c"/>
      <path id="Path_3" data-name="Path 3" d="M478.457,320.759c0,2.473.085,4.52.171,6.225h-4.563l-.256-3.113h-.128a7.6,7.6,0,0,1-6.694,3.582c-3.753,0-7.207-2.26-7.207-9.04v-12.2h5.245v11.3c0,3.453,1.109,5.671,3.881,5.671a4.267,4.267,0,0,0,4.008-2.815,3.794,3.794,0,0,0,.3-1.62V306.219h5.245v14.54Z" transform="translate(-376.835 -295.107)" fill="#1d1c1c"/>
      <rect id="Rectangle_1" data-name="Rectangle 1" width="5.245" height="30.317" transform="translate(106.191 1.561)" fill="#1d1c1c"/>
      <rect id="Rectangle_2" data-name="Rectangle 2" width="5.245" height="20.766" transform="translate(116.048 11.113)" fill="#1d1c1c"/>
      <path id="Path_4" data-name="Path 4" d="M650.817,315.267c-3.71-.042-7.249.725-7.249,3.88a2.753,2.753,0,0,0,2.985,2.985,4.306,4.306,0,0,0,4.136-2.857,3.546,3.546,0,0,0,.128-1.151v-2.857Zm5.117,5.16a28.023,28.023,0,0,0,.341,4.988h-4.733l-.384-2.3h-.128a7.588,7.588,0,0,1-6.141,2.772,6.164,6.164,0,0,1-6.524-6.183c0-5.2,4.648-7.888,12.323-7.846v-.341c0-1.365-.554-3.624-4.221-3.624a11,11,0,0,0-5.586,1.535l-1.023-3.412a14.951,14.951,0,0,1,7.5-1.833c6.652,0,8.571,4.222,8.571,8.784Z" transform="translate(-514.304 -293.537)" fill="#1d1c1c"/>
    </g>
    <g id="Group_3" data-name="Group 3" transform="translate(99.516 257.954)" clip-path="url(#clip-path-2)">
      <path id="Path_5" data-name="Path 5" d="M605.163,274.293a2.968,2.968,0,1,1,.043,0Z" transform="translate(-486.513 -266.166)" fill="#f88a4e"/>
      <path id="Path_6" data-name="Path 6" d="M728.317,306.226a2.1,2.1,0,1,1-2.1-2.046,2.056,2.056,0,0,1,2.1,2.046m-3.68,0a1.585,1.585,0,0,0,1.6,1.634,1.566,1.566,0,0,0,1.559-1.622,1.579,1.579,0,1,0-3.156-.012m1.26,1.073h-.474v-2.046a4.142,4.142,0,0,1,.786-.062,1.269,1.269,0,0,1,.711.15.565.565,0,0,1,.2.448.525.525,0,0,1-.424.474v.025a.6.6,0,0,1,.374.5,1.576,1.576,0,0,0,.15.512h-.511a1.759,1.759,0,0,1-.162-.5c-.037-.224-.162-.324-.424-.324H725.9Zm.013-1.16h.224c.262,0,.474-.087.474-.3,0-.187-.138-.312-.437-.312a1.121,1.121,0,0,0-.262.025Z" transform="translate(-580.309 -293.537)" fill="#3b3e3f"/>
      <path id="Path_7" data-name="Path 7" d="M167.956,331.563c-2-.736-3.609-13.987-.67-15.427,2.337-1.141,15.613,4.991,15.6,7.216-.009,2.464-12.93,8.945-14.933,8.211m-4.271-20.611c-5.222,1.9-2.268,24.937,1.136,26.187s25.665-9.768,25.351-13.939c-.291-3.83-21.267-14.148-26.488-12.248" transform="translate(-146.727 -298.573)" fill="#f88a4e"/>
      <path id="Path_8" data-name="Path 8" d="M121.917,263.572c1.986.781,3.293,14.065.322,15.438-2.362,1.089-15.5-5.341-15.437-7.566.064-2.463,13.128-8.651,15.115-7.872m3.806,20.7c5.264-1.782,2.829-24.88-.546-26.206S99.3,267.255,99.518,271.431c.2,3.835,20.943,14.624,26.205,12.842" transform="translate(-99.516 -257.953)" fill="#003285"/>
    </g>
    <g id="Group_5" data-name="Group 5" transform="translate(99.516 257.954)" clip-path="url(#clip-path)">
      <path id="Path_9" data-name="Path 9" d="M199.4,316.645c.077.7.122,1.4.14,2.1a36.754,36.754,0,0,1,7.09,2.7v0a9.939,9.939,0,0,1,.116-4.662.9.9,0,0,1,.054-.119,53.673,53.673,0,0,0-7.358-2.7c.026.894-.026,1.791-.042,2.687" transform="translate(-176.404 -301.064)" fill="#f7894f"/>
    </g>
  </g>
</svg>
